<svg width="54" height="53" viewBox="0 0 54 53" fill="none" xmlns="http://www.w3.org/2000/svg">
<path d="M49.6001 13.1863C47.2332 9.13007 44.0226 5.91846 39.9676 3.55091C35.9118 1.18348 31.4844 0 26.6819 0C21.8799 0 17.4511 1.18348 13.3961 3.55091C9.34081 5.9181 6.13026 9.1297 3.76336 13.1863C1.39634 17.2432 0.213257 21.6734 0.213257 26.4766C0.213257 31.2801 1.39671 35.7095 3.763 39.7666C6.12978 43.8229 9.34033 47.0345 13.3956 49.4023C17.4511 51.7696 21.8795 52.9532 26.6814 52.9532C31.4833 52.9532 35.9122 51.7696 39.9675 49.4023C44.0225 47.0353 47.2329 43.8229 49.5996 39.7666C51.9659 35.7099 53.1489 31.2798 53.1489 26.4766C53.149 21.6729 51.9659 17.2426 49.6001 13.1863ZM39.1571 32.716C39.5937 33.1523 39.8124 33.6705 39.8124 34.2681C39.8124 34.888 39.5937 35.417 39.1571 35.8532L36.0557 38.9566C35.6195 39.3929 35.0907 39.6111 34.4702 39.6111C33.8729 39.6111 33.3553 39.3929 32.9194 38.9566L26.6815 32.716L20.4434 38.9566C20.0069 39.3929 19.4901 39.6111 18.8927 39.6111C18.2722 39.6111 17.7439 39.3929 17.3072 38.9566L14.2053 35.8532C13.7688 35.417 13.5506 34.888 13.5506 34.2681C13.5506 33.6707 13.769 33.1524 14.2053 32.716L20.4434 26.4765L14.2053 20.2363C13.7688 19.8002 13.5506 19.2826 13.5506 18.6851C13.5506 18.0644 13.769 17.5359 14.2053 17.0991L17.3072 13.9967C17.7439 13.56 18.2722 13.3417 18.8927 13.3417C19.4901 13.3417 20.0069 13.5602 20.4434 13.9967L26.6815 20.2363L32.9194 13.9967C33.3552 13.56 33.8728 13.3417 34.4702 13.3417C35.0907 13.3417 35.6195 13.5602 36.0557 13.9967L39.1571 17.0991C39.5937 17.5359 39.8124 18.0644 39.8124 18.6851C39.8124 19.2825 39.5937 19.8002 39.1571 20.2363L32.9194 26.4765L39.1571 32.716Z" fill="#2D5A70"/>
</svg>
