<svg width="135" height="134" viewBox="0 0 135 134" fill="none" xmlns="http://www.w3.org/2000/svg">
<path d="M135 71.8218H103.078C100.756 89.2958 85.6549 102.784 67.3718 102.784C49.0887 102.784 33.9876 89.2958 31.6661 71.8218H0C2.49619 106.574 31.7631 134 67.5 134C103.237 134 132.504 106.574 135 71.8218Z" fill="white" fill-opacity="0.35"/>
<path d="M135 62.1779C132.504 27.4256 103.237 0 67.5 0C31.7632 0 2.49633 27.4256 1.79374e-05 62.1779H31.7008C34.1341 44.8273 49.1773 31.4696 67.3718 31.4696C85.5663 31.4696 100.61 44.8273 103.043 62.1779H135Z" fill="white" fill-opacity="0.35"/>
<path d="M93.1335 67.1269C93.1335 81.2133 81.5996 92.6326 67.3718 92.6326C53.144 92.6326 41.6101 81.2133 41.6101 67.1269C41.6101 53.0405 53.144 41.6212 67.3718 41.6212C81.5996 41.6212 93.1335 53.0405 93.1335 67.1269Z" fill="white" fill-opacity="0.35"/>
</svg>
